<?xml version="1.0" encoding="UTF-8" standalone="no"?>
<svg
   xmlns:dc="http://purl.org/dc/elements/1.1/"
   xmlns:cc="http://creativecommons.org/ns#"
   xmlns:rdf="http://www.w3.org/1999/02/22-rdf-syntax-ns#"
   xmlns:svg="http://www.w3.org/2000/svg"
   xmlns="http://www.w3.org/2000/svg"
   xmlns:sodipodi="http://sodipodi.sourceforge.net/DTD/sodipodi-0.dtd"
   xmlns:inkscape="http://www.inkscape.org/namespaces/inkscape"
   version="1.1"
   x="0px"
   y="0px"
   viewBox="0 0 1000 1000"
   enable-background="new 0 0 1000 1000"
   xml:space="preserve"
   id="svg10"
   sodipodi:docname="info.svg"
   inkscape:version="1.0.1 (3bc2e813f5, 2020-09-07)"><defs
   id="defs14" /><sodipodi:namedview
   pagecolor="#ffffff"
   bordercolor="#666666"
   borderopacity="1"
   objecttolerance="10"
   gridtolerance="10"
   guidetolerance="10"
   inkscape:pageopacity="0"
   inkscape:pageshadow="2"
   inkscape:window-width="1914"
   inkscape:window-height="1488"
   id="namedview12"
   showgrid="false"
   inkscape:zoom="1.008"
   inkscape:cx="500"
   inkscape:cy="500"
   inkscape:window-x="0"
   inkscape:window-y="28"
   inkscape:window-maximized="0"
   inkscape:current-layer="g8" />
<metadata
   id="metadata2"> Svg Vector Icons : http://www.onlinewebfonts.com/icon <rdf:RDF><cc:Work
     rdf:about=""><dc:format>image/svg+xml</dc:format><dc:type
       rdf:resource="http://purl.org/dc/dcmitype/StillImage" /><dc:title></dc:title></cc:Work></rdf:RDF></metadata>
<g
   id="g8"><path
     d="M500,10C229.4,10,10,229.4,10,500C10,770.6,229.4,990,500,990c270.7,0,490-219.3,490-489.9C990,229.4,770.6,10,500,10z M500,955.3c-251.3,0-455-203.7-455-455.1c0-251.3,203.7-455,455-455c251.3,0,455,203.7,455,455C955.1,751.6,751.3,955.3,500,955.3z"
     id="path4"
     style="fill:#ffffff" /><path
     d="M553.2,325.8c-32.2,0-58.4-25.9-58.4-57.9s26.1-57.9,58.4-57.9c32.2,0,58.3,25.9,58.3,57.9C611.5,299.9,585.4,325.8,553.2,325.8z M406.1,427.6c0-4.7,0-9.4,0-14.1c46.3-18.2,117.6-11.6,165.4-28.3c1.9,0,3.8,0,5.7,0c-23,115.9-71.7,221.4-82.7,339.8c2.6,2,2.3,1.6,5.7,2.8c35.9,12,56.5-70.8,79.9-65.1c23.4,5.8-14.6,46.9-19.9,53.9c-20.9,27.2-61,73.4-108.4,73.6c-33.5,0.2-68.2-20.8-62.7-76.5c5.4-55.7,36.9-133.3,54.2-195.4C457.1,468.1,475.1,426.3,406.1,427.6z"
     id="path6"
     style="fill:#ffffff" /></g>
</svg>
