<?xml version="1.0" encoding="UTF-8" standalone="no"?>
<svg
   xmlns:dc="http://purl.org/dc/elements/1.1/"
   xmlns:cc="http://creativecommons.org/ns#"
   xmlns:rdf="http://www.w3.org/1999/02/22-rdf-syntax-ns#"
   xmlns:svg="http://www.w3.org/2000/svg"
   xmlns="http://www.w3.org/2000/svg"
   xmlns:sodipodi="http://sodipodi.sourceforge.net/DTD/sodipodi-0.dtd"
   xmlns:inkscape="http://www.inkscape.org/namespaces/inkscape"
   version="1.1"
   id="svg2"
   xml:space="preserve"
   width="213.33333"
   height="213.33333"
   viewBox="0 0 213.33333 213.33333"
   sodipodi:docname="onlyfan.svg"
   inkscape:version="1.0.1 (3bc2e813f5, 2020-09-07)"><metadata
     id="metadata8"><rdf:RDF><cc:Work
         rdf:about=""><dc:format>image/svg+xml</dc:format><dc:type
           rdf:resource="http://purl.org/dc/dcmitype/StillImage" /><dc:title></dc:title></cc:Work></rdf:RDF></metadata><defs
     id="defs6"><clipPath
       clipPathUnits="userSpaceOnUse"
       id="clipPath18"><path
         d="M 0,160 H 160 V 0 H 0 Z"
         id="path16" /></clipPath></defs><sodipodi:namedview
     pagecolor="#ffffff"
     bordercolor="#666666"
     borderopacity="1"
     objecttolerance="10"
     gridtolerance="10"
     guidetolerance="10"
     inkscape:pageopacity="0"
     inkscape:pageshadow="2"
     inkscape:window-width="1990"
     inkscape:window-height="1251"
     id="namedview4"
     showgrid="false"
     inkscape:zoom="4.7250001"
     inkscape:cx="106.66666"
     inkscape:cy="106.66666"
     inkscape:window-x="0"
     inkscape:window-y="28"
     inkscape:window-maximized="0"
     inkscape:current-layer="g20" /><g
     id="g10"
     inkscape:groupmode="layer"
     inkscape:label="onlyfans-seeklogo.com"
     transform="matrix(1.3333333,0,0,-1.3333333,0,213.33333)"><g
       id="g12"><g
         id="g14"
         clip-path="url(#clipPath18)"><g
           id="g20"
           transform="translate(79.792,8.3638)"><path
             d="m 0,0 c -39.573,0.095 -71.576,32.253 -71.48,71.826 0.096,39.573 32.253,71.576 71.827,71.481 C 39.839,143.211 71.808,111.18 71.827,71.688 71.77,32.071 39.617,-0.004 0,0.034 Z M 0,151.636 C -44.183,151.521 -79.906,115.611 -79.792,71.428 -79.677,27.246 -43.767,-8.479 0.416,-8.363 44.537,-8.249 80.236,27.566 80.208,71.688 80.122,115.908 44.22,151.693 0,151.636"
             style="fill:#ffffff;fill-opacity:1;fill-rule:evenodd;stroke:none"
             id="path22" /></g><g
           id="g24"
           transform="translate(99.7061,85.004)"
           style="fill:#ffffff"><path
             d="m 0,0 h -38.459 v 6.736 c 0.008,4.327 1.763,8.466 4.865,11.481 3.106,3.08 7.298,4.815 11.672,4.831 h 5.367 c 4.374,-0.014 8.568,-1.75 11.671,-4.831 3.097,-3.02 4.85,-7.156 4.866,-11.481 z m -15.74,-29.333 v -7.706 c 0.008,-1.148 -0.574,-2.22 -1.542,-2.839 h -1.454 c -0.173,-0.027 -0.347,-0.027 -0.52,0 h -0.346 c -0.144,-0.016 -0.289,-0.016 -0.433,0 h -0.658 c -0.986,0.631 -1.585,1.72 -1.593,2.891 v 7.654 c -4.725,1.834 -7.068,7.152 -5.234,11.876 1.39,3.579 4.859,5.915 8.697,5.856 h 0.19 c 5.069,0.077 9.24,-3.968 9.319,-9.035 0.058,-3.838 -2.277,-7.308 -5.855,-8.697 z M 13.351,0.208 v 6.528 c -0.008,7.83 -3.181,15.324 -8.797,20.779 -5.62,5.556 -13.206,8.668 -21.109,8.658 h -5.367 c -7.897,0.005 -15.476,-3.106 -21.092,-8.658 -5.618,-5.452 -8.786,-12.95 -8.778,-20.779 V 0.208 l -3.706,-6.684 v -9.628 c 0.013,-8.695 3.534,-17.018 9.766,-23.082 6.282,-6.16 14.733,-9.606 23.532,-9.593 h 5.974 c 8.777,-0.002 17.203,3.443 23.463,9.593 6.243,6.059 9.772,14.383 9.784,23.082 v 9.628 z"
             style="fill:#ffffff;fill-opacity:1;fill-rule:nonzero;stroke:none"
             id="path26" /></g></g></g></g></svg>
