<?xml version="1.0" encoding="UTF-8" standalone="no"?>
<svg
   xmlns:dc="http://purl.org/dc/elements/1.1/"
   xmlns:cc="http://creativecommons.org/ns#"
   xmlns:rdf="http://www.w3.org/1999/02/22-rdf-syntax-ns#"
   xmlns:svg="http://www.w3.org/2000/svg"
   xmlns="http://www.w3.org/2000/svg"
   xmlns:sodipodi="http://sodipodi.sourceforge.net/DTD/sodipodi-0.dtd"
   xmlns:inkscape="http://www.inkscape.org/namespaces/inkscape"
   width="613"
   height="613"
   viewBox="0 0 613 613"
   version="1.1"
   id="svg5"
   sodipodi:docname="podcastaddict.svg"
   inkscape:version="1.0.1 (3bc2e813f5, 2020-09-07)">
  <metadata
     id="metadata11">
    <rdf:RDF>
      <cc:Work
         rdf:about="">
        <dc:format>image/svg+xml</dc:format>
        <dc:type
           rdf:resource="http://purl.org/dc/dcmitype/StillImage" />
        <dc:title></dc:title>
      </cc:Work>
    </rdf:RDF>
  </metadata>
  <defs
     id="defs9" />
  <sodipodi:namedview
     pagecolor="#ffffff"
     bordercolor="#666666"
     borderopacity="1"
     objecttolerance="10"
     gridtolerance="10"
     guidetolerance="10"
     inkscape:pageopacity="0"
     inkscape:pageshadow="2"
     inkscape:window-width="1910"
     inkscape:window-height="1414"
     id="namedview7"
     showgrid="false"
     inkscape:zoom="1.6497545"
     inkscape:cx="306.5"
     inkscape:cy="305.5"
     inkscape:window-x="0"
     inkscape:window-y="28"
     inkscape:window-maximized="0"
     inkscape:current-layer="svg5" />
  <g
     stroke="none"
     stroke-width="1"
     fill="none"
     fill-rule="evenodd"
     id="g3"
     style="fill:#ffffff">
    <path
       d="m 275,610.06213 c -112.5,-11.6 -210.3,-85.30001 -252.6,-190.70001 -10,-24.8 -16.6,-51.3 -20,-79.59999 -2.1,-17.3 -2.1,-50.90001 0,-68.20001 8.6,-72.2 39.5,-135.1 90.8,-184.999995 18.7,-18.2 41.5,-35.5 61,-46.4 l 5.8,-3.2 V 175.36212 c 0,90.2 0.4,141.3 1,146.8 6.2,50.10001 36.2,92.60001 80.5,114.4 10.5,5.20001 25.6,10.6 33.8,12.1 l 3.7,0.7 -0.2,-26.2 -0.3,-26.1 -7.3,-2.9 c -11.4,-4.39999 -20.8,-10.6 -30.5,-19.89999 -13.6,-13.10001 -22,-27.3 -26.8,-45.10001 -3.3,-12.19999 -3.3,-34.8 0,-47 9.2,-34.4 34.8,-59.7 69.9,-69.2 10.1,-2.7 32.1,-3 43.1,-0.5 21.8,5 42.2,18.2 55.7,36 4.9,6.4 14.4,24.9 14.4,28.00001 0,1.59999 1.9,1.69999 26.5,1.69999 14.6,0 26.5,-0.3 26.5,-0.8 0,-0.39999 -0.9,-4.09999 -2,-8.2 -11.2,-41.4 -38.5,-75.2 -76,-93.9 -22.1,-11.1 -40.8,-15.5 -65.5,-15.5 -23.4,0 -41.7,4 -62.3,13.5 -7.4,3.4 -22.9,13 -30.5,18.9 l -2.7,2.2 0.2,-89.89999 0.3,-89.800005 11.5,-3.3 c 28.9,-8.2999997 48,-10.6999997 84,-10.6999997 30.3,0 36.2,0.5 61,5.5 36.5,7.2999997 77.7,24.2999997 106.5,43.8999997 1.7,1.2 3.3,2.1 3.8,2.1 0.4,0 0.7,-11.7 0.7,-26 V 0.1621253 h 66.5 66.6 l -0.4,167.7999947 -0.3,167.7 -2.2,14 c -9,55.5 -29,102 -62.8,145.5 -10.9,14.10001 -34.3,37.7 -48.4,48.90001 -47.2,37.5 -102.9,60.19999 -161.4,66 -12.7,1.29999 -49.2,1.19999 -61.6,0 z m 49.5,-73.90001 c 31.5,-2.69999 56.6,-9.8 84.4,-23.59999 25.1,-12.50001 43.9,-26.20001 63.1,-46.00001 33.2,-34.09999 54.4,-75.9 62.4,-122.9 1.8,-10.1 3.8,-36.3 3,-37.6 -0.3,-0.5 -11.7,-0.9 -25.3,-0.9 h -24.8 l -0.6,11.30001 c -2,35.3 -13.9,68.09999 -35.7,97.69999 -8.3,11.30001 -27.3,30 -38.7,38 -29.6,20.80001 -60.9,32 -94.5,33.7 l -11.8,0.60001 v 25.3 25.39999 h 3.3 c 1.7,0 8.6,-0.5 15.2,-1 z m -1.5,-86 c 55.7,-6.8 102.2,-44.1 120.8,-97.19999 3.6,-10.10001 6.7,-25.60001 7.7,-38 l 0.7,-8.80001 h -24.5 c -27.5,0 -25.7,-0.6 -25.7,8 0,11.2 -7.9,33.7 -16.1,45.80001 -4.7,6.8 -16.4,18.69999 -23.4,23.69999 -12.9,9.2 -29.1,15.5 -45,17.4 -4.9,0.6 -9.3,1.1 -9.7,1.1 -0.5,0 -0.8,11 -0.8,24.5 v 24.5 h 3.8 c 2.1,0 7.6,-0.5 12.2,-1 z m -3.5,-89.5 c 10.7,-2.69999 18.4,-7.19999 26.6,-15.39999 11,-11 16.9,-24.8 16.9,-39.60001 0,-25.39999 -18.3,-48.6 -43.5,-55 -29.1,-7.4 -60.3,11.5 -67.9,41.10001 -7.7,29.89999 11.5,61.7 41.6,69 7.3,1.7 19.2,1.7 26.3,-0.10001 z"
       id="Shape"
       fill="#000000"
       fill-rule="nonzero"
       transform="matrix(1,0,0,-1,0,611.16213)"
       style="fill:#ffffff" />
  </g>
</svg>
