<?xml version="1.0" encoding="UTF-8" standalone="no"?>
<svg
   xmlns:dc="http://purl.org/dc/elements/1.1/"
   xmlns:cc="http://creativecommons.org/ns#"
   xmlns:rdf="http://www.w3.org/1999/02/22-rdf-syntax-ns#"
   xmlns:svg="http://www.w3.org/2000/svg"
   xmlns="http://www.w3.org/2000/svg"
   xmlns:sodipodi="http://sodipodi.sourceforge.net/DTD/sodipodi-0.dtd"
   xmlns:inkscape="http://www.inkscape.org/namespaces/inkscape"
   version="1.1"
   id="Calque_1"
   x="0px"
   y="0px"
   width="184.2px"
   height="184.2px"
   viewBox="0 0 184.2 184.2"
   style="enable-background:new 0 0 184.2 184.2;"
   xml:space="preserve"
   sodipodi:docname="podmust.svg"
   inkscape:version="1.0.1 (3bc2e813f5, 2020-09-07)"><metadata
   id="metadata19"><rdf:RDF><cc:Work
       rdf:about=""><dc:format>image/svg+xml</dc:format><dc:type
         rdf:resource="http://purl.org/dc/dcmitype/StillImage" /></cc:Work></rdf:RDF></metadata><defs
   id="defs17" /><sodipodi:namedview
   pagecolor="#ffffff"
   bordercolor="#666666"
   borderopacity="1"
   objecttolerance="10"
   gridtolerance="10"
   guidetolerance="10"
   inkscape:pageopacity="0"
   inkscape:pageshadow="2"
   inkscape:window-width="1767"
   inkscape:window-height="1291"
   id="namedview15"
   showgrid="false"
   inkscape:zoom="5.4723128"
   inkscape:cx="92.099998"
   inkscape:cy="92.099998"
   inkscape:window-x="0"
   inkscape:window-y="28"
   inkscape:window-maximized="0"
   inkscape:current-layer="g10" />
<style
   type="text/css"
   id="style2">
	.st0{fill:#E6331F;}
	.st1{fill:none;}
</style>
<g
   id="g12">
	<g
   id="g10">
		<path
   class="st0"
   d="m 80.912194,131.77855 c 2.602671,0.81335 4.717339,1.62668 6.994679,2.11468 7.320005,1.46401 14.640027,1.30133 21.960027,0.488 19.35737,-2.27734 34.81072,-11.22402 45.87206,-27.32804 6.66935,-9.922681 9.92269,-20.984031 11.38669,-32.696047 1.46401,-12.850686 1.30134,-25.701371 -1.952,-38.226721 -9.92269,-38.3893888 -55.63208,-45.0587317 -77.429443,-20.333363 -2.114674,2.440004 -4.229342,5.042674 -6.344012,7.645344 0,-0.488 -0.162667,-0.650667 -0.162667,-0.976001 0.325334,-6.344009 0.488001,-12.5253514 0.813335,-18.8693604 0,-0.9760014 0.488,-2.2773366 -1.138669,-2.2773366 -3.578672,0.1626669 -7.32001,-0.1626669 -10.736015,0.8133345 -11.54935,2.7653373 -22.936033,6.0186752 -34.485383,9.1093465 -5.368008,1.464003 -10.573348,2.928004 -15.941356,4.392006 0,1.952003 0.162667,3.741339 0,5.368008 -0.162666,1.464002 0.325334,2.440003 1.789336,3.253338 2.928004,1.626668 5.530675,3.741338 8.458678,5.368008 1.789336,0.976001 2.277337,2.277337 2.277337,4.392006 v 129.482848 1.95201 c -0.162667,3.74134 -1.952003,5.85601 -5.530675,6.50668 -2.114669,0.32533 -4.392005,0.65066 -6.669342,0.97599 v 10.08535 h 2.440003 73.688111 c 0.487998,0 0.975997,0.16266 1.463996,0 0.487998,-0.32534 1.301342,-0.81333 1.301342,-1.13867 0.162666,-2.928 0,-5.85601 0,-8.62134 -4.229347,-0.65067 -8.133349,-1.30133 -12.037351,-2.11468 -3.741344,-0.81333 -5.04268,-2.60266 -5.205346,-6.50667 -0.162667,-3.74134 -0.162667,-7.48267 -0.162667,-11.06134 -0.650668,-7.48269 -0.650668,-14.47736 -0.650668,-21.79738 z"
   id="path4"
   sodipodi:nodetypes="cccccccccccccccscsccccccsccccccc"
   style="fill:#ffffff;stroke-width:1.62667" />
		<path
   class="st0"
   d="M184.1,184.2c0-0.5,0-1,0-1.5c0-60.4,0-120.9,0-181.3c0-0.5,0-1,0-1.5c0.1,0,0.3,0.1,0.3,0.1    c0,0.4,0,0.8,0,1.2c0,60.5,0,121.1,0,181.6C184.4,183.4,184.2,183.8,184.1,184.2z"
   id="path6" />
		<path
   class="st1"
   d="M84.2,118.6c0,4.4,0,8.8,0,13.2c0,2.3,0,4.6,0.1,6.8c0.1,2.4,0.9,3.5,3.2,4c2.4,0.5,4.9,0.9,7.4,1.3    c0,1.8,0,3.5,0,5.3c0,0.3-0.5,0.6-0.8,0.7c-0.2,0.1-0.6,0-0.9,0c-15.1,0-30.2,0-45.3,0c-0.5,0-1,0-1.5,0c0-2.1,0-4.1,0-6.2    c1.4-0.2,2.7-0.4,4.1-0.6c2.3-0.4,3.4-1.7,3.4-4c0-0.4,0-0.8,0-1.2c0-26.6,0-53,0-79.6c0-1.2-0.3-2-1.4-2.7    c-1.8-1-3.4-2.2-5.2-3.3c-0.8-0.5-1.1-1.1-1.1-2c0.1-1.1,0-2.1,0-3.3c3.3-0.9,6.5-1.8,9.8-2.7c7.1-1.9,14.1-3.9,21.2-5.6    c2.1-0.5,4.4-0.4,6.6-0.5c1,0,0.8,0.8,0.7,1.4c-0.1,3.9-0.3,7.7-0.5,11.6c0,0.2,0,0.4,0.1,0.6c1.4-1.6,2.6-3.2,3.9-4.7    c13.4-15.2,41.4-11.2,47.6,12.5c2,7.8,2.1,15.6,1.2,23.5c-0.8,7.2-2.8,14.1-7,20.1c-6.8,9.9-16.3,15.4-28.2,16.8    c-4.5,0.5-9,0.6-13.5-0.3C87.1,119.7,85.8,119.1,84.2,118.6z"
   id="path8" />
	</g>
</g>
</svg>
