<?xml version="1.0" encoding="UTF-8" standalone="no"?>
<svg
   xmlns:dc="http://purl.org/dc/elements/1.1/"
   xmlns:cc="http://creativecommons.org/ns#"
   xmlns:rdf="http://www.w3.org/1999/02/22-rdf-syntax-ns#"
   xmlns:svg="http://www.w3.org/2000/svg"
   xmlns="http://www.w3.org/2000/svg"
   xmlns:sodipodi="http://sodipodi.sourceforge.net/DTD/sodipodi-0.dtd"
   xmlns:inkscape="http://www.inkscape.org/namespaces/inkscape"
   version="1.1"
   viewBox="0 0 256 255.99999"
   id="svg10"
   sodipodi:docname="pornhub.svg"
   width="256"
   height="256"
   inkscape:version="1.0.1 (3bc2e813f5, 2020-09-07)">
  <metadata
     id="metadata16">
    <rdf:RDF>
      <cc:Work
         rdf:about="">
        <dc:format>image/svg+xml</dc:format>
        <dc:type
           rdf:resource="http://purl.org/dc/dcmitype/StillImage" />
        <dc:title></dc:title>
      </cc:Work>
    </rdf:RDF>
  </metadata>
  <defs
     id="defs14" />
  <sodipodi:namedview
     pagecolor="#ffffff"
     bordercolor="#666666"
     borderopacity="1"
     objecttolerance="10"
     gridtolerance="10"
     guidetolerance="10"
     inkscape:pageopacity="0"
     inkscape:pageshadow="2"
     inkscape:window-width="2534"
     inkscape:window-height="1555"
     id="namedview12"
     showgrid="false"
     inkscape:zoom="3.8043478"
     inkscape:cx="86.319821"
     inkscape:cy="88.762891"
     inkscape:window-x="0"
     inkscape:window-y="28"
     inkscape:window-maximized="0"
     inkscape:current-layer="svg10" />
  <path
     d="M 235.5461,109.80261 H 26.039569 c -6.518666,0.73205 -10.103351,4.7176 -10.736625,11.99156 v 120.39486 c 0.624559,7.26523 4.203434,11.23627 10.678526,11.99446 h 209.61401 c 6.47801,-0.75819 10.05397,-4.73213 10.68144,-11.99446 V 121.79417 c -0.63038,-7.27396 -4.21798,-11.25951 -10.73082,-11.99156"
     fill="#f7971d"
     id="path4"
     style="stroke-width:2.90493" />
  <path
     d="m 225.0593,165.87068 c -3.55565,-3.92745 -8.33134,-6.44894 -13.53408,-7.60801 -1.49022,-0.39507 -3.19251,-0.67685 -5.08652,-0.7611 -6.87888,-0.62456 -15.71568,2.12641 -19.82326,5.57458 l 0.9964,-28.18947 h -16.72951 v 87.27576 h 15.5414 v -4.80766 c 3.58176,2.8846 9.33352,6.23398 18.0948,6.23398 0.34278,0 0.66814,-0.004 0.98477,-0.007 0.22658,0.005 0.45609,0.007 0.68267,0.007 7.34365,0 13.58635,-2.91655 18.72227,-8.74966 5.13884,-5.83891 7.7097,-14.14699 7.7097,-24.94174 0,-10.44031 -2.52148,-18.4463 -7.55864,-24.02668 m -13.48469,39.77141 c -2.597,3.15476 -5.74306,4.72923 -9.43521,4.72923 -4.80476,0 -8.6538,-2.22226 -11.55002,-6.66681 -2.06249,-3.13443 -3.09665,-7.97404 -3.09665,-14.52466 0,-6.35018 1.33047,-11.08233 3.98848,-14.19638 2.66092,-3.11409 5.99287,-4.67404 10.00167,-4.67404 4.09015,0 7.44244,1.5977 10.06268,4.79022 2.61735,3.19542 3.93037,8.40686 3.93037,15.62562 0,6.79172 -1.30141,11.75917 -3.90132,14.91682 m -67.65294,-20.03532 c 0,9.04887 -0.4154,14.73382 -1.24913,17.05777 -0.8337,2.32105 -2.38203,4.26734 -4.64498,5.8302 -2.26003,1.57156 -4.82219,2.35298 -7.67773,2.35298 -2.50114,0 -4.56656,-0.58388 -6.19332,-1.75457 -1.62676,-1.17069 -2.75096,-2.75968 -3.36391,-4.76408 -0.61584,-2.00441 -0.92085,-7.44825 -0.92085,-16.34314 v -29.04932 h -16.72659 v 40.00671 c 0,5.95221 0.75237,10.61463 2.26003,13.99016 1.50765,3.37262 3.9478,5.99286 7.32042,7.85783 3.37553,1.86497 7.1839,2.79745 11.4309,2.79745 0.63618,0 1.26656,-0.0232 1.89112,-0.0668 0.029,0 0.0319,0 0.0494,-0.005 10.64656,-0.30794 16.19208,-5.13593 19.01567,-8.31973 v 6.96312 h 15.53558 V 158.93651 H 143.92167 Z M 89.338015,165.12993 c -1.568672,-2.21939 -3.898418,-4.04656 -6.992179,-5.47579 -2.800348,-1.2927 -5.905721,-1.99278 -9.321918,-2.1177 -0.05817,-0.004 -0.110393,-0.007 -0.168562,-0.0118 -7.050267,-0.37474 -16.067183,1.68193 -20.276434,5.73141 V 134.88644 H 35.852346 v 87.27284 h 16.726576 v -31.66666 c 0,-5.31892 0.508365,-9.33935 1.51928,-12.05545 1.013831,-2.72192 2.608642,-4.75538 4.793147,-6.10617 2.181606,-1.34498 4.659502,-2.02183 7.442421,-2.02183 2.416914,0 4.435844,0.52578 6.039354,1.57737 1.606426,1.05159 2.730637,2.47211 3.363913,4.25572 0.633279,1.78944 0.952817,5.99287 0.952817,12.61903 v 33.39799 h 16.726592 v -37.08725 c 0,-5.67334 -0.290484,-9.86226 -0.865667,-12.55802 -0.57227,-2.70449 -1.647097,-5.16207 -3.212855,-7.38435"
     id="path6"
     style="stroke-width:2.90493" />
  <path
     d="m 252.54257,38.559152 c -0.61152,-2.599652 -1.69471,-4.927821 -3.24682,-6.976281 -1.56034,-2.048459 -3.8556,-3.734942 -6.89128,-5.053963 -3.03566,-1.319021 -6.38395,-1.977161 -10.05033,-1.977161 -6.64447,-0.378431 -17.42973,2.15815 -20.68753,7.31906 v -5.90406 h -15.42789 v 62.775548 h 16.6098 V 60.313408 c 0,-7.014672 0.42505,-11.824575 1.2724,-14.424227 0.84462,-2.602393 2.41319,-4.689244 4.70022,-6.266037 2.28429,-1.576792 4.86474,-2.366561 7.74136,-2.366561 2.24591,0 4.16822,0.556677 5.76421,1.656319 1.59599,1.102383 2.75048,2.651753 3.45797,4.639884 0.71025,1.993614 1.064,6.375728 1.064,13.151823 v 32.037686 h 16.6098 V 49.731071 c 0,-4.848295 -0.30439,-8.572268 -0.91591,-11.171919 M 173.39853,24.790323 c -4.9141,0.627975 -9.61157,4.593265 -11.66826,7.118876 V 25.96949 h -15.42789 v 62.775545 h 16.6098 V 69.357343 c 0,-10.681057 0.46344,-17.692987 1.39032,-21.044014 0.92413,-3.351027 2.19654,-5.662743 3.81172,-6.946115 1.61519,-1.28063 3.58686,-1.922316 5.91229,-1.922316 2.40221,0 5.00187,0.904941 7.8017,2.717568 l 5.14445,-14.481813 c -3.50733,-2.086852 -7.15452,-3.128906 -10.93609,-3.128906 -0.91315,0 -1.79068,0.08227 -2.63804,0.238576 m -67.7445,-0.241319 c -6.148125,0 -11.714886,1.357414 -16.69755,4.080466 -4.98815,2.714826 -8.838267,6.655437 -11.558578,11.81909 -2.717568,5.163655 -4.077723,10.502812 -4.077723,16.020216 0,7.212114 1.360155,13.330069 4.077723,18.351126 2.720311,5.029283 6.688345,8.841009 11.912328,11.437918 5.22124,2.599645 10.70848,3.904965 16.46172,3.904965 9.29896,0 17.0129,-3.123424 23.14184,-9.370266 6.12892,-6.246842 9.19201,-14.117095 9.19201,-23.618985 0,-9.414139 -3.03292,-17.207609 -9.10152,-23.374926 -6.07134,-6.164574 -13.85384,-9.249604 -23.35025,-9.249604 m 10.96626,47.111828 c -2.93696,3.309894 -6.57317,4.966212 -10.90867,4.966212 -4.33549,0 -7.979945,-1.656318 -10.933348,-4.966212 -2.956143,-3.312636 -4.434214,-8.081406 -4.434214,-14.30631 0,-6.224903 1.478071,-10.996416 4.434214,-14.306309 2.953403,-3.307153 6.597858,-4.96347 10.933348,-4.96347 4.3355,0 7.97171,1.656317 10.90867,4.96347 2.9342,3.309893 4.40405,8.043014 4.40405,14.188392 0,6.307172 -1.46985,11.111591 -4.40405,14.424227 M 52.262453,3.3870731 C 49.032085,2.5177811 42.096939,2.0845061 31.457015,2.0845061 H 3.3791338 V 88.742295 H 20.874679 V 56.054697 h 11.407753 c 7.922355,0 13.971755,-0.414081 18.148199,-1.242239 3.076804,-0.669109 6.098761,-2.040233 9.0741,-4.107888 2.97534,-2.067655 5.42691,-4.91411 7.360195,-8.542104 1.930543,-3.62251 2.895815,-8.097859 2.895815,-13.417821 0,-6.896756 -1.675514,-12.521107 -5.0238,-16.87854 C 61.385914,7.5141571 57.228665,4.6841571 52.262453,3.3870731 M 49.750554,35.720925 c -1.319021,1.933284 -3.139875,3.351027 -5.465301,4.255969 -2.325427,0.904942 -6.94063,1.357413 -13.834643,1.357413 H 20.874679 V 16.744566 h 8.454351 c 6.30443,0 10.502812,0.197441 12.589663,0.592326 2.838227,0.5128 5.18285,1.793429 7.036609,3.84189 1.848276,2.048459 2.777898,4.64811 2.777898,7.801696 0,2.56126 -0.663624,4.809903 -1.982646,6.740447"
     fill="#fff"
     id="path8"
     style="fill:#ffffff;stroke-width:2.74225" />
</svg>
