<?xml version="1.0" encoding="UTF-8" standalone="no"?>
<svg
   xmlns:dc="http://purl.org/dc/elements/1.1/"
   xmlns:cc="http://creativecommons.org/ns#"
   xmlns:rdf="http://www.w3.org/1999/02/22-rdf-syntax-ns#"
   xmlns:svg="http://www.w3.org/2000/svg"
   xmlns="http://www.w3.org/2000/svg"
   xmlns:sodipodi="http://sodipodi.sourceforge.net/DTD/sodipodi-0.dtd"
   xmlns:inkscape="http://www.inkscape.org/namespaces/inkscape"
   version="1.1"
   id="Capa_1"
   x="0px"
   y="0px"
   viewBox="0 0 512 512"
   style="enable-background:new 0 0 512 512;"
   xml:space="preserve"
   sodipodi:docname="shopping-bag.svg"
   inkscape:version="1.0.1 (3bc2e813f5, 2020-09-07)"><metadata
   id="metadata49"><rdf:RDF><cc:Work
       rdf:about=""><dc:format>image/svg+xml</dc:format><dc:type
         rdf:resource="http://purl.org/dc/dcmitype/StillImage" /><dc:title></dc:title></cc:Work></rdf:RDF></metadata><defs
   id="defs47" /><sodipodi:namedview
   pagecolor="#ffffff"
   bordercolor="#666666"
   borderopacity="1"
   objecttolerance="10"
   gridtolerance="10"
   guidetolerance="10"
   inkscape:pageopacity="0"
   inkscape:pageshadow="2"
   inkscape:window-width="867"
   inkscape:window-height="480"
   id="namedview45"
   showgrid="false"
   inkscape:zoom="1.96875"
   inkscape:cx="256"
   inkscape:cy="256"
   inkscape:window-x="0"
   inkscape:window-y="28"
   inkscape:window-maximized="0"
   inkscape:current-layer="Capa_1" />
<g
   id="g6"
   style="fill:#ffffff">
	<g
   id="g4"
   style="fill:#ffffff">
		<path
   d="M 497,122 H 420.417 L 420,89.899 C 419.946,40.319 379.593,0 330,0 c -49.626,0 -90,40.374 -90,90 0,0.065 0,0.13 0.001,0.195 L 240.414,122 H 164 c -8.284,0 -15,6.716 -15,15 V 242 H 15 c -8.284,0 -15,6.716 -15,15 v 210 c 0,24.813 20.187,45 45,45 h 242 30 150 c 24.813,0 45,-20.187 45,-45 V 137 c 0,-8.284 -6.716,-15 -15,-15 z M 330,30 c 33.084,0 60,26.916 60,60 0,0.065 0,0.13 10e-4,0.195 L 390.415,122 H 270.417 L 270,89.909 C 270.049,56.866 296.946,30 330,30 Z m 2,437 c 0,8.271 -6.729,15 -15,15 H 287 45 c -8.271,0 -15,-6.729 -15,-15 V 272 h 302 z m 150,0 c 0,8.271 -6.729,15 -15,15 H 359.42 c 1.665,-4.695 2.58,-9.742 2.58,-15 V 257 c 0,-8.284 -6.716,-15 -15,-15 H 179 v -90 h 61.804 l 0.197,15.195 c 0.106,8.217 6.801,14.805 14.995,14.805 0.066,0 0.132,0 0.199,-0.001 8.284,-0.108 14.912,-6.91 14.804,-15.194 L 270.806,152 h 119.998 l 0.197,15.195 c 0.106,8.217 6.801,14.805 14.995,14.805 0.066,0 0.132,0 0.199,-0.001 8.284,-0.108 14.912,-6.91 14.804,-15.194 L 420.806,152 H 482 Z"
   id="path2"
   style="fill:#ffffff" />
	</g>
</g>
<g
   id="g12"
   style="fill:#ffffff">
	<g
   id="g10"
   style="fill:#ffffff">
		<path
   d="m 256,302 c -8.284,0 -15,6.716 -15,15 v 15 c 0,33.084 -26.916,60 -60,60 -33.084,0 -60,-26.916 -60,-60 v -15 c 0,-8.284 -6.716,-15 -15,-15 -8.284,0 -15,6.716 -15,15 v 15 c 0,49.626 40.374,90 90,90 49.626,0 90,-40.374 90,-90 v -15 c 0,-8.284 -6.716,-15 -15,-15 z"
   id="path8"
   style="fill:#ffffff" />
	</g>
</g>
<g
   id="g14"
   style="fill:#ffffff">
</g>
<g
   id="g16"
   style="fill:#ffffff">
</g>
<g
   id="g18"
   style="fill:#ffffff">
</g>
<g
   id="g20"
   style="fill:#ffffff">
</g>
<g
   id="g22"
   style="fill:#ffffff">
</g>
<g
   id="g24"
   style="fill:#ffffff">
</g>
<g
   id="g26"
   style="fill:#ffffff">
</g>
<g
   id="g28"
   style="fill:#ffffff">
</g>
<g
   id="g30"
   style="fill:#ffffff">
</g>
<g
   id="g32"
   style="fill:#ffffff">
</g>
<g
   id="g34"
   style="fill:#ffffff">
</g>
<g
   id="g36"
   style="fill:#ffffff">
</g>
<g
   id="g38"
   style="fill:#ffffff">
</g>
<g
   id="g40"
   style="fill:#ffffff">
</g>
<g
   id="g42"
   style="fill:#ffffff">
</g>
</svg>
