<?xml version="1.0" encoding="UTF-8" standalone="no"?>
<svg
   xmlns:dc="http://purl.org/dc/elements/1.1/"
   xmlns:cc="http://creativecommons.org/ns#"
   xmlns:rdf="http://www.w3.org/1999/02/22-rdf-syntax-ns#"
   xmlns:svg="http://www.w3.org/2000/svg"
   xmlns="http://www.w3.org/2000/svg"
   xmlns:sodipodi="http://sodipodi.sourceforge.net/DTD/sodipodi-0.dtd"
   xmlns:inkscape="http://www.inkscape.org/namespaces/inkscape"
   height="256"
   viewBox="0 0 102.76974 91.102373"
   width="256"
   version="1.1"
   id="svg14"
   sodipodi:docname="tipeee.svg"
   inkscape:version="1.0.1 (3bc2e813f5, 2020-09-07)">
  <metadata
     id="metadata20">
    <rdf:RDF>
      <cc:Work
         rdf:about="">
        <dc:format>image/svg+xml</dc:format>
        <dc:type
           rdf:resource="http://purl.org/dc/dcmitype/StillImage" />
        <dc:title></dc:title>
      </cc:Work>
    </rdf:RDF>
  </metadata>
  <defs
     id="defs18" />
  <sodipodi:namedview
     pagecolor="#ffffff"
     bordercolor="#666666"
     borderopacity="1"
     objecttolerance="10"
     gridtolerance="10"
     guidetolerance="10"
     inkscape:pageopacity="0"
     inkscape:pageshadow="2"
     inkscape:window-width="2043"
     inkscape:window-height="1276"
     id="namedview16"
     showgrid="false"
     inkscape:zoom="2.408"
     inkscape:cx="219.36217"
     inkscape:cy="210.20036"
     inkscape:window-x="396"
     inkscape:window-y="380"
     inkscape:window-maximized="0"
     inkscape:current-layer="svg14" />
  <g
     clip-rule="evenodd"
     fill-rule="evenodd"
     id="g12"
     transform="matrix(0.23474217,0,0,0.23474217,0.99647091,6.788182)"
     style="fill:#ffffff">
    <path
       d="m 0,71.04 c 0.153,-0.028 0.394,-0.005 0.445,-0.093 1.374,-2.352 3.553,-2.599 6.001,-2.527 3.917,0.115 7.838,0.051 11.758,0.021 1.689,-0.013 1.82,-0.072 1.739,-1.782 -0.287,-6.073 -0.135,-12.15 -0.219,-18.224 -0.051,-3.679 -0.1,-7.36 -0.023,-11.037 0.103,-4.929 2.468,-7.79 7.172,-9.198 13.766,-4.122 27.585,-8.069 41.186,-12.728 1.127,-0.387 2.308,-0.654 3.485,-0.856 4.409,-0.756 7.554,1.577 8.08,6.022 0.14,1.183 0.055,2.394 0.055,3.592 0.002,13.998 -0.001,27.996 0.005,41.995 0.001,2.195 0.022,2.221 2.276,2.224 9.599,0.01 19.197,0.003 28.796,0.007 0.719,0 1.446,-0.035 2.156,0.058 1.87,0.244 3.178,1.599 3.404,3.479 0.057,0.474 0.036,0.958 0.036,1.438 0.002,13.678 0.008,27.356 -0.003,41.035 -0.003,3.486 -1.474,4.938 -4.956,4.985 -0.48,0.006 -0.96,0.001 -1.44,0.001 -9.119,0 -18.238,-0.008 -27.356,0.004 -3.323,0.004 -2.909,-0.317 -2.91,2.97 -0.011,22.797 -0.008,45.594 -10e-4,68.392 0,1.596 -0.013,3.188 0.337,4.771 0.936,4.224 3.448,6.624 7.705,7.493 3.961,0.81 7.802,0.111 11.63,-0.737 3.669,-0.813 7.221,-2.026 10.671,-3.524 0.293,-0.128 0.58,-0.272 0.877,-0.387 3.363,-1.296 5.284,-0.074 5.427,3.548 0.091,2.316 0.022,4.64 0.022,6.959 v 32.396 c 0,4.617 -1.91,7.508 -6.217,9.18 -7.152,2.776 -14.447,5.099 -21.913,6.901 -8.99,2.172 -18.082,3.348 -27.323,2.715 -10.777,-0.738 -20.479,-4.16 -28.149,-12.155 -5.874,-6.121 -9.208,-13.571 -11.084,-21.729 -1.078,-4.685 -1.539,-9.441 -1.529,-14.266 0.046,-23.598 0.026,-47.194 0.018,-70.792 -0.002,-6.479 -0.043,-12.957 -0.071,-19.435 -0.01,-2.29 -0.017,-2.298 -2.393,-2.303 -3.839,-0.007 -7.682,-0.084 -11.518,0.029 C 3.848,119.55 1.899,119.099 0.604,116.988 0.498,116.815 0.206,116.755 0,116.642 Z"
       fill="#d84759"
       id="path4"
       style="fill:#ffffff" />
    <path
       d="m 188.161,0 c 4.22,0.528 8.272,1.563 12.077,3.564 11.113,5.844 17.558,18.132 16.395,30.657 -1.448,15.596 -15.105,29.037 -32.729,28.094 -17.141,-0.917 -28.681,-14.862 -29.471,-29.28 -0.836,-15.238 9.33,-28.896 24.068,-32.327 0.978,-0.228 2.095,0.062 2.94,-0.708 z"
       fill="#d8485a"
       id="path6"
       style="fill:#ffffff" />
    <path
       d="m 317.083,74.01 c 3.69,-1.357 7.203,-2.644 10.853,-3.487 20.368,-4.706 39.551,-1.717 57.351,9.216 17.688,10.864 29.574,26.574 37.117,45.721 3.983,10.108 6.2,20.622 6.897,31.464 1.342,20.851 -2.648,40.569 -12.809,58.881 -8.914,16.065 -21.302,28.659 -37.92,36.854 -12.342,6.086 -25.404,8.436 -39.072,7.411 -6.881,-0.516 -13.566,-2.074 -20.037,-4.512 -0.722,-0.271 -1.404,-0.789 -2.244,-0.626 -0.506,0.363 -0.334,0.885 -0.334,1.326 -0.014,8.639 -0.016,17.276 -0.006,25.914 0.002,1.954 0.028,1.975 1.961,1.983 3.519,0.017 7.039,-0.008 10.558,0.009 3.3,0.016 4.827,1.448 5.074,4.734 0.042,0.557 0.015,1.119 0.015,1.679 0,12.718 -0.001,25.435 0.003,38.151 0,1.121 0.01,2.237 -0.31,3.329 -0.545,1.861 -1.888,2.968 -3.797,3.083 -0.478,0.029 -0.959,0.007 -1.439,0.007 -28.953,0 -57.907,0.001 -86.86,-0.002 -0.719,0 -1.455,0.061 -2.153,-0.068 -1.674,-0.311 -3.035,-1.901 -3.253,-3.726 -0.066,-0.553 -0.035,-1.118 -0.035,-1.678 -0.002,-13.356 -0.003,-26.714 0.002,-40.07 10e-4,-0.953 -0.094,-1.917 0.341,-2.829 0.845,-1.771 2.22,-2.632 4.19,-2.62 3.759,0.022 7.518,0.016 11.277,0.002 1.985,-0.007 1.986,-0.024 2.021,-1.913 0.007,-0.399 0.001,-0.8 0.001,-1.199 0,-52.868 0.003,-105.736 -0.006,-158.604 -0.001,-3.582 0.482,-3.179 -3.179,-3.2 -3.199,-0.019 -6.399,0.027 -9.598,-0.013 -3.587,-0.044 -5.043,-1.541 -5.046,-5.175 -0.011,-13.517 -0.011,-27.034 0,-40.55 0.003,-3.748 1.51,-5.33 5.189,-5.333 23.275,-0.019 46.549,-0.019 69.824,0 3.653,0.005 4.788,1.232 5.424,5.841 z m 59.739,90.169 c -0.021,-8.239 -1.26,-15.685 -3.907,-22.781 -2.346,-6.289 -5.65,-11.978 -10.606,-16.616 -4.109,-3.845 -8.893,-6.285 -14.541,-6.563 -5.228,-0.257 -9.869,1.603 -14.009,4.739 -5.029,3.811 -8.625,8.785 -11.144,14.478 -7.364,16.646 -7.682,33.574 -1.499,50.625 2.262,6.237 5.732,11.767 10.702,16.261 8.65,7.822 19.684,8.163 28.784,0.894 4.134,-3.302 7.178,-7.481 9.589,-12.137 4.694,-9.06 6.592,-18.77 6.631,-28.9 z M 154.325,137.344 c -0.886,-0.34 -1.612,0.068 -2.366,0.293 -3.06,0.913 -6.114,1.846 -9.186,2.719 -2.521,0.716 -4.661,-0.659 -5.076,-3.242 -0.126,-0.784 -0.125,-1.593 -0.125,-2.39 -0.007,-12.479 -0.006,-24.958 -0.002,-37.437 0,-0.719 0.013,-1.44 0.075,-2.156 0.284,-3.251 1.45,-4.731 4.576,-5.672 11.924,-3.591 23.854,-7.158 35.782,-10.737 10.782,-3.235 21.563,-6.474 32.345,-9.707 0.611,-0.183 1.224,-0.401 1.852,-0.483 2.247,-0.294 4.131,1.14 4.416,3.385 0.11,0.867 0.058,1.756 0.058,2.636 0.002,43.916 0,87.832 0.006,131.748 0,3.457 -0.295,2.951 2.898,2.976 3.359,0.025 6.72,-0.022 10.079,0.015 2.985,0.033 4.573,1.621 4.578,4.63 0.019,13.919 0.02,27.838 0,41.756 -0.004,3.195 -1.554,4.558 -5.063,4.559 -25.277,0.004 -50.555,0.002 -75.833,0.002 -3.92,0 -7.839,0.019 -11.759,-0.007 -3.161,-0.021 -4.69,-1.536 -4.694,-4.723 -0.019,-13.839 -0.02,-27.678 0.001,-41.517 0.005,-3.105 1.631,-4.679 4.773,-4.703 3.36,-0.026 6.72,0.005 10.079,-0.01 3.057,-0.013 2.741,0.321 2.748,-2.639 0.014,-5.76 0.004,-11.519 0.004,-17.278 0,-16.479 0.002,-32.957 -0.005,-49.436 -0.004,-0.867 0.115,-1.751 -0.161,-2.582 z"
       fill="#d84759"
       id="path8"
       style="fill:#ffffff" />
  </g>
</svg>
