<?xml version="1.0" encoding="UTF-8" standalone="no"?>
<svg
   xmlns:dc="http://purl.org/dc/elements/1.1/"
   xmlns:cc="http://creativecommons.org/ns#"
   xmlns:rdf="http://www.w3.org/1999/02/22-rdf-syntax-ns#"
   xmlns:svg="http://www.w3.org/2000/svg"
   xmlns="http://www.w3.org/2000/svg"
   xmlns:sodipodi="http://sodipodi.sourceforge.net/DTD/sodipodi-0.dtd"
   xmlns:inkscape="http://www.inkscape.org/namespaces/inkscape"
   version="1.1"
   id="Capa_1"
   x="0px"
   y="0px"
   viewBox="0 0 512.001 512.001"
   style="enable-background:new 0 0 512.001 512.001;"
   xml:space="preserve"
   sodipodi:docname="web.svg"
   inkscape:version="1.0.1 (3bc2e813f5, 2020-09-07)"><metadata
   id="metadata43"><rdf:RDF><cc:Work
       rdf:about=""><dc:format>image/svg+xml</dc:format><dc:type
         rdf:resource="http://purl.org/dc/dcmitype/StillImage" /><dc:title></dc:title></cc:Work></rdf:RDF></metadata><defs
   id="defs41" /><sodipodi:namedview
   pagecolor="#ffffff"
   bordercolor="#666666"
   borderopacity="1"
   objecttolerance="10"
   gridtolerance="10"
   guidetolerance="10"
   inkscape:pageopacity="0"
   inkscape:pageshadow="2"
   inkscape:window-width="900"
   inkscape:window-height="480"
   id="namedview39"
   showgrid="false"
   inkscape:zoom="1.9687462"
   inkscape:cx="256.00049"
   inkscape:cy="256.00049"
   inkscape:window-x="0"
   inkscape:window-y="28"
   inkscape:window-maximized="0"
   inkscape:current-layer="Capa_1" />
<g
   id="g6"
   style="fill:#ffffff">
	<g
   id="g4"
   style="fill:#ffffff">
		<path
   d="m 257.297,0.004 c -0.018,0 -0.035,0 -0.053,-0.001 C 257.162,0.003 257.081,0 257,0 c -0.012,0 -0.024,0 -0.036,0 -0.032,0 -0.065,0.001 -0.097,0.001 C 115.786,0.073 0,114.252 0,255 c 0,34.416 6.855,67.932 20.376,99.618 26.177,61.348 75.527,110.772 137.005,137.005 31.682,13.519 65.194,20.375 99.605,20.376 0.009,0 0.018,0.002 0.027,0.002 0.023,0 0.047,-0.002 0.07,-0.003 C 398.634,511.953 512,395.326 512,255 512,114.274 398.242,0.163 257.297,0.004 Z m -49.98,35.439 C 181.736,59.695 160.835,88.099 145.096,120 H 75.515 C 107.426,77.96 153.837,47.325 207.317,35.443 Z M 56.286,149.8 h 75.991 C 121.784,178.547 115.58,209.187 113.979,240 H 30.517 c 2.157,-32.328 11.232,-63.007 25.769,-90.2 z M 56.851,362 C 41.961,334.26 32.678,303.087 30.509,270 h 83.368 c 1.432,31.496 7.682,62.631 18.402,92 z m 19.278,30 h 68.967 c 15.709,31.842 36.581,60.236 62.154,84.494 C 154.137,464.571 108.007,433.983 76.129,392 Z m 67.792,-122 h 98.078 v 92 H 164.626 C 152.648,333.142 145.53,302.081 143.921,270 Z m 98.08,197.115 C 216.497,445.88 195.351,420.38 179.27,392 H 242 v 75.115 z m 0,-227.115 h -97.979 c 1.799,-31.373 8.876,-61.742 20.606,-90 h 77.373 z m 0,-120 h -62.729 c 16.08,-28.38 37.226,-53.88 62.729,-75.116 z m 213.944,30 c 14.41,27.193 23.404,57.672 25.543,90 H 400.02 c -1.601,-30.813 -7.805,-61.253 -18.298,-90 z M 436.887,120 H 368.905 C 353.208,88.183 332.359,59.811 306.817,35.567 359.585,47.541 405.369,78.11 436.887,120 Z M 272.001,44.89 c 25.503,21.236 46.657,46.73 62.737,75.11 H 272.001 Z M 272,150 h 77.392 c 11.728,28.256 18.789,58.629 20.588,90 H 272 Z m 98.088,119.8 c -1.608,32.079 -8.719,63.344 -20.696,92.2 H 272 V 269.8 Z M 272.001,467.11 V 391.8 h 62.737 c -16.08,28.38 -37.234,54.073 -62.737,75.31 z m 34.884,9.258 c 25.491,-24.21 46.326,-52.757 62.019,-84.568 h 67.373 c -31.481,41.83 -76.987,72.553 -129.392,84.568 z M 381.723,362 c 10.72,-29.369 16.97,-60.704 18.402,-92.2 h 81.372 c -2.15,33.087 -11.351,64.46 -26.11,92.2 z"
   id="path2"
   style="fill:#ffffff" />
	</g>
</g>
<g
   id="g8">
</g>
<g
   id="g10">
</g>
<g
   id="g12">
</g>
<g
   id="g14">
</g>
<g
   id="g16">
</g>
<g
   id="g18">
</g>
<g
   id="g20">
</g>
<g
   id="g22">
</g>
<g
   id="g24">
</g>
<g
   id="g26">
</g>
<g
   id="g28">
</g>
<g
   id="g30">
</g>
<g
   id="g32">
</g>
<g
   id="g34">
</g>
<g
   id="g36">
</g>
</svg>
