<?xml version="1.0" encoding="UTF-8" standalone="no"?>
<svg
   xmlns:dc="http://purl.org/dc/elements/1.1/"
   xmlns:cc="http://creativecommons.org/ns#"
   xmlns:rdf="http://www.w3.org/1999/02/22-rdf-syntax-ns#"
   xmlns:svg="http://www.w3.org/2000/svg"
   xmlns="http://www.w3.org/2000/svg"
   xmlns:sodipodi="http://sodipodi.sourceforge.net/DTD/sodipodi-0.dtd"
   xmlns:inkscape="http://www.inkscape.org/namespaces/inkscape"
   version="1.1"
   id="Capa_1"
   x="0px"
   y="0px"
   width="98.05px"
   height="98.05px"
   viewBox="0 0 98.05 98.05"
   style="enable-background:new 0 0 98.05 98.05;"
   xml:space="preserve"
   sodipodi:docname="wiki.svg"
   inkscape:version="1.0.1 (3bc2e813f5, 2020-09-07)"><metadata
   id="metadata41"><rdf:RDF><cc:Work
       rdf:about=""><dc:format>image/svg+xml</dc:format><dc:type
         rdf:resource="http://purl.org/dc/dcmitype/StillImage" /><dc:title></dc:title></cc:Work></rdf:RDF></metadata><defs
   id="defs39" /><sodipodi:namedview
   pagecolor="#ffffff"
   bordercolor="#666666"
   borderopacity="1"
   objecttolerance="10"
   gridtolerance="10"
   guidetolerance="10"
   inkscape:pageopacity="0"
   inkscape:pageshadow="2"
   inkscape:window-width="896"
   inkscape:window-height="480"
   id="namedview37"
   showgrid="false"
   inkscape:zoom="10.280469"
   inkscape:cx="49.025002"
   inkscape:cy="49.025002"
   inkscape:window-x="0"
   inkscape:window-y="28"
   inkscape:window-maximized="0"
   inkscape:current-layer="Capa_1" />
<g
   id="g4"
   style="fill:#ffffff">
	<path
   d="M 98.023,17.465 78.439,17.409 c -0.004,0.711 -0.006,1.563 -0.017,2.121 1.664,0.039 5.922,0.822 7.257,4.327 L 66.92,67.155 C 66.001,65.006 57.277,45.627 56.281,43.135 l 9.072,-18.818 c 1.873,-2.863 5.455,-4.709 8.918,-4.843 L 74.261,17.506 55.42,17.489 c -0.045,0.499 10e-4,1.548 -0.068,2.069 5.315,0.144 7.215,1.334 5.941,4.508 -2.102,4.776 -6.51,13.824 -7.372,15.475 -2.696,-5.635 -4.41,-9.972 -7.345,-16.064 -1.266,-2.823 1.529,-3.922 4.485,-4.004 v -1.981 l -21.82,-0.067 c 0.016,0.93 -0.021,1.451 -0.021,2.131 3.041,0.046 6.988,0.371 8.562,3.019 2.087,4.063 9.044,20.194 11.149,24.514 C 46.246,52.242 39.724,64.43 37.387,69.002 34.039,61.572 21.655,32.313 18.155,24.761 16.851,21.543 21.887,19.684 24.801,19.548 L 24.82,17.4 0,17.398 c 0.005,0.646 0.027,1.71 0.029,2.187 4.025,-0.037 9.908,6.573 11.588,10.683 7.244,16.811 14.719,33.524 21.928,50.349 0.002,0.029 2.256,0.059 2.281,0.008 4.717,-9.653 10.229,-19.797 15.206,-29.56 L 63.588,80.64 c 0.005,0.004 2.082,0.016 2.093,0.007 7.962,-18.196 19.892,-46.118 23.794,-54.933 1.588,-3.767 4.245,-6.064 8.543,-6.194 l 0.032,-1.956 z"
   id="path2"
   style="fill:#ffffff" />
</g>
<g
   id="g6">
</g>
<g
   id="g8">
</g>
<g
   id="g10">
</g>
<g
   id="g12">
</g>
<g
   id="g14">
</g>
<g
   id="g16">
</g>
<g
   id="g18">
</g>
<g
   id="g20">
</g>
<g
   id="g22">
</g>
<g
   id="g24">
</g>
<g
   id="g26">
</g>
<g
   id="g28">
</g>
<g
   id="g30">
</g>
<g
   id="g32">
</g>
<g
   id="g34">
</g>
</svg>
