<?xml version="1.0" encoding="UTF-8" standalone="no"?>
<svg
   xmlns:dc="http://purl.org/dc/elements/1.1/"
   xmlns:cc="http://creativecommons.org/ns#"
   xmlns:rdf="http://www.w3.org/1999/02/22-rdf-syntax-ns#"
   xmlns:svg="http://www.w3.org/2000/svg"
   xmlns="http://www.w3.org/2000/svg"
   xmlns:sodipodi="http://sodipodi.sourceforge.net/DTD/sodipodi-0.dtd"
   xmlns:inkscape="http://www.inkscape.org/namespaces/inkscape"
   width="256"
   height="256"
   viewBox="0 0 67.73333 67.733335"
   version="1.1"
   id="svg8"
   inkscape:version="1.0.1 (3bc2e813f5, 2020-09-07)"
   sodipodi:docname="apple.svg">
  <defs
     id="defs2" />
  <sodipodi:namedview
     id="base"
     pagecolor="#ffffff"
     bordercolor="#666666"
     borderopacity="1.0"
     inkscape:pageopacity="0.0"
     inkscape:pageshadow="2"
     inkscape:zoom="0.98994949"
     inkscape:cx="211.5334"
     inkscape:cy="304.69369"
     inkscape:document-units="mm"
     inkscape:current-layer="g847"
     inkscape:document-rotation="0"
     showgrid="false"
     units="px"
     inkscape:window-width="1718"
     inkscape:window-height="1212"
     inkscape:window-x="0"
     inkscape:window-y="28"
     inkscape:window-maximized="0" />
  <metadata
     id="metadata5">
    <rdf:RDF>
      <cc:Work
         rdf:about="">
        <dc:format>image/svg+xml</dc:format>
        <dc:type
           rdf:resource="http://purl.org/dc/dcmitype/StillImage" />
        <dc:title></dc:title>
      </cc:Work>
    </rdf:RDF>
  </metadata>
  <g
     inkscape:label="Calque 1"
     inkscape:groupmode="layer"
     id="layer1">
    <g
       id="g847">
      <path
         style="fill:#ffffff;fill-opacity:1;stroke-width:0.303449"
         d="M 31.094367,66.783431 C 30.435188,66.527845 30.107118,65.984893 29.353595,63.902427 26.911279,57.152733 25.699456,51.551783 25.474114,45.97174 c -0.162423,-4.022075 -0.132065,-4.3651 0.472969,-5.344056 2.269123,-3.671526 9.822023,-4.75625 14.123471,-2.028356 2.220093,1.407953 2.606277,2.3054 2.606185,6.056532 -1.03e-4,3.687078 -0.530818,7.297864 -1.78909,12.172164 -0.978039,3.788785 -2.867093,9.297478 -3.355923,9.78632 -0.42543,0.425419 -5.436795,0.557059 -6.437359,0.169087 z m -8.906915,-7.38598 C 14.741076,56.529223 9.7261786,52.009246 6.7144164,45.451474 2.9313891,37.214324 2.969856,26.661303 6.8128202,18.460671 9.9747226,11.713344 15.420119,6.1965962 21.851171,3.2252701 26.19409,1.2187181 28.266165,0.80736755 34.030789,0.80736755 c 4.473517,0 5.476833,0.0921646 7.554391,0.69390815 10.973737,3.1784475 18.907395,11.6858433 21.791496,23.3674163 0.939389,3.804841 0.940547,10.649028 0.0023,14.408314 -1.710207,6.853259 -5.729346,12.888114 -11.186383,16.796704 -1.862148,1.33376 -7.612206,4.239939 -7.872999,3.979146 -0.322244,-0.322255 0.273845,-1.046749 1.317234,-1.600953 5.18809,-2.755706 10.665956,-9.75626 13.008458,-16.624451 C 62.735113,29.836062 58.84539,16.845966 48.990864,9.5856312 36.061909,0.060201 17.86715,4.8235877 10.6577,19.62125 8.4059514,24.243048 8.0189999,27.403987 7.9603821,32.062693 c -0.055166,4.380687 0.1015003,5.121938 0.8476484,7.58624 2.2789295,7.52612 7.2754655,14.369813 13.4639705,18.441411 1.210011,0.796096 2.200012,1.581101 2.200012,1.744453 0,0.406437 -0.186933,0.370654 -2.284653,-0.437346 z m -2.020843,-16.11914 c -2.001553,-1.592099 -3.547145,-3.587929 -4.723919,-6.100045 -0.76974,-1.643217 -0.979553,-2.843937 -1.040981,-5.557919 -0.05516,-2.43672 0.298457,-4.036354 1.148526,-6.421005 C 18.606898,16.62473 26.4907,11.15069 35.058592,11.6539 c 10.054064,0.590494 17.938176,8.744097 18.472538,19.103969 0.168192,3.260604 -0.147009,4.992762 -1.341766,7.373731 -1.025739,2.044137 -2.571629,3.878622 -4.487222,5.324904 -1.571994,1.186866 -2.354797,1.553621 -1.750302,0.820043 0.757697,-0.91949 2.510786,-4.851924 3.082101,-6.913608 0.920568,-3.321998 0.86476,-7.511979 -0.139921,-10.504874 -1.464989,-4.364137 -4.455545,-7.801983 -8.410228,-9.668156 -4.434052,-2.092369 -8.670126,-2.042451 -13.16556,0.155152 -5.520553,2.698728 -8.915126,8.333053 -8.915126,14.797342 0,3.423785 0.66309,6.099162 2.37629,9.587632 0.790292,1.609199 1.364096,2.924816 1.275131,2.923566 -0.089,-0.0011 -0.938517,-0.620116 -1.887918,-1.37529 z m 11.777872,-9.082092 c -2.456974,-0.875793 -4.420083,-3.636878 -4.429522,-6.230103 -0.008,-2.326274 0.539913,-3.677444 2.111242,-5.201888 2.680206,-2.600221 6.128603,-2.600531 8.808327,-7.91e-4 2.971174,2.882518 2.866772,7.31407 -0.238279,10.113542 -1.8731,1.688771 -3.972322,2.131736 -6.251768,1.319229 z"
         id="path849"
         sodipodi:nodetypes="sssssssssssssssscsssssssssssssssssssssssssscssssssss" />
    </g>
  </g>
</svg>
