<?xml version="1.0" encoding="UTF-8" standalone="no"?>
<svg
   xmlns:dc="http://purl.org/dc/elements/1.1/"
   xmlns:cc="http://creativecommons.org/ns#"
   xmlns:rdf="http://www.w3.org/1999/02/22-rdf-syntax-ns#"
   xmlns:svg="http://www.w3.org/2000/svg"
   xmlns="http://www.w3.org/2000/svg"
   xmlns:sodipodi="http://sodipodi.sourceforge.net/DTD/sodipodi-0.dtd"
   xmlns:inkscape="http://www.inkscape.org/namespaces/inkscape"
   enable-background="new 0 0 128 128"
   id="Social_Icons"
   version="1.1"
   viewBox="0 0 128 128"
   xml:space="preserve"
   sodipodi:docname="dailymotion.svg"
   inkscape:version="1.0.1 (3bc2e813f5, 2020-09-07)"><metadata
     id="metadata12"><rdf:RDF><cc:Work
         rdf:about=""><dc:format>image/svg+xml</dc:format><dc:type
           rdf:resource="http://purl.org/dc/dcmitype/StillImage" /><dc:title></dc:title></cc:Work></rdf:RDF></metadata><defs
     id="defs10" /><sodipodi:namedview
     pagecolor="#ffffff"
     bordercolor="#666666"
     borderopacity="1"
     objecttolerance="10"
     gridtolerance="10"
     guidetolerance="10"
     inkscape:pageopacity="0"
     inkscape:pageshadow="2"
     inkscape:window-width="1663"
     inkscape:window-height="1330"
     id="namedview8"
     showgrid="false"
     inkscape:zoom="3.9375"
     inkscape:cx="111.63517"
     inkscape:cy="63.582088"
     inkscape:window-x="0"
     inkscape:window-y="28"
     inkscape:window-maximized="0"
     inkscape:current-layer="Dailymotion" /><g
     id="_x33__stroke"><g
       id="Dailymotion"><rect
         clip-rule="evenodd"
         fill="none"
         fill-rule="evenodd"
         height="128"
         width="128"
         id="rect2" /><path
         clip-rule="evenodd"
         d="m 82.230905,58.759715 c -11.193357,0 -19.850494,9.104776 -19.850494,19.850495 0,11.193356 8.65594,19.700882 20.745771,19.700882 10.148467,0 18.655998,-8.357914 18.655998,-19.402855 0,-11.492581 -8.507531,-20.148522 -19.551275,-20.148522 z m 42.237205,60.445565 h -22.83555 v -8.95517 c -7.014995,6.86539 -14.178408,9.40281 -23.730823,9.40281 -9.700828,0 -18.058743,-3.13467 -25.073741,-9.40281 C 43.574805,102.04181 38.798,91.294897 38.798,78.758624 c 0,-11.49258 4.477582,-21.790659 12.835496,-29.850546 7.462637,-7.313025 16.567413,-11.044942 26.71588,-11.044942 9.700829,0 17.163466,3.283082 22.536324,10.148468 V 13.088618 L 124.46692,8.2028954 V 119.20528 Z"
         fill="#0066dc"
         fill-rule="evenodd"
         id="Dailymotion_1_"
         sodipodi:nodetypes="ssssscccscscsccccc"
         style="fill:#ffffff;stroke-width:1.1969" /></g></g></svg>
