<?xml version="1.0" encoding="UTF-8" standalone="no"?>
<svg
   xmlns:dc="http://purl.org/dc/elements/1.1/"
   xmlns:cc="http://creativecommons.org/ns#"
   xmlns:rdf="http://www.w3.org/1999/02/22-rdf-syntax-ns#"
   xmlns:svg="http://www.w3.org/2000/svg"
   xmlns="http://www.w3.org/2000/svg"
   xmlns:sodipodi="http://sodipodi.sourceforge.net/DTD/sodipodi-0.dtd"
   xmlns:inkscape="http://www.inkscape.org/namespaces/inkscape"
   width="256"
   height="256"
   viewBox="0 0 30.007326 29.95927"
   preserveAspectRatio="xMidYMid"
   version="1.1"
   id="svg4"
   sodipodi:docname="discord-4.svg"
   inkscape:version="1.0.1 (3bc2e813f5, 2020-09-07)">
  <metadata
     id="metadata10">
    <rdf:RDF>
      <cc:Work
         rdf:about="">
        <dc:format>image/svg+xml</dc:format>
        <dc:type
           rdf:resource="http://purl.org/dc/dcmitype/StillImage" />
        <dc:title></dc:title>
      </cc:Work>
    </rdf:RDF>
  </metadata>
  <defs
     id="defs8" />
  <sodipodi:namedview
     pagecolor="#ffffff"
     bordercolor="#666666"
     borderopacity="1"
     objecttolerance="10"
     gridtolerance="10"
     guidetolerance="10"
     inkscape:pageopacity="0"
     inkscape:pageshadow="2"
     inkscape:window-width="2223"
     inkscape:window-height="1472"
     id="namedview6"
     showgrid="false"
     inkscape:zoom="3.2256"
     inkscape:cx="166.24853"
     inkscape:cy="172.99758"
     inkscape:window-x="0"
     inkscape:window-y="28"
     inkscape:window-maximized="0"
     inkscape:current-layer="svg4" />
  <path
     d="m 22.02469,25.264611 c 0,0 -0.909168,-1.086135 -1.666925,-2.045892 3.308647,-0.934549 4.571403,-3.005476 4.571403,-3.005476 -1.035551,0.681965 -2.020513,1.161929 -2.904478,1.489962 -1.262755,0.530552 -2.475096,0.883964 -3.662059,1.086136 -2.424684,0.454586 -4.647197,0.328378 -6.54133,-0.02521 C 10.381582,22.48617 9.1440326,22.082171 8.1086559,21.678172 7.5276916,21.450793 6.8963139,21.173 6.2647635,20.819414 c -0.07562,-0.05058 -0.1514133,-0.07579 -0.2272062,-0.126378 -0.03798,-0.01886 -0.072206,-0.04449 -0.1009999,-0.07562 -0.4545851,-0.252585 -0.7071706,-0.429377 -0.7071706,-0.429377 0,0 1.2123419,2.020512 4.4198168,2.980096 C 8.89162,24.128066 7.95707,25.264442 7.95707,25.264442 2.3753242,25.087652 0.2539846,21.425591 0.2539846,21.425591 0.2539846,13.293127 3.890838,6.7012106 3.890838,6.7012106 7.5276915,3.9735272 10.987753,4.0493204 10.987753,4.0493204 l 0.252586,0.3031719 C 6.6943144,5.6654885 4.5980088,7.6609672 4.5980088,7.6609672 c 0,0 0.5555848,-0.3029985 1.4899618,-0.7323768 C 8.790447,5.741454 10.937339,5.4132488 11.821301,5.3374555 c 0.151413,-0.025373 0.277794,-0.05059 0.42938,-0.05059 1.692478,-0.2204797 3.405275,-0.2374057 5.101779,-0.050411 2.399133,0.277793 4.975403,0.9849634 7.601913,2.4245116 0,0 -1.995133,-1.8941331 -6.288743,-3.207475 l 0.353585,-0.4039995 c 0,0 3.460061,-0.075963 7.096915,2.6518914 0,0 3.637025,6.591742 3.637025,14.724207 0,0 -2.146891,3.66206 -7.728465,3.838851 z M 10.280582,13.469914 c -1.4395491,0 -2.5759251,1.262757 -2.5759251,2.803305 0,1.54072 1.161583,2.803475 2.5759251,2.803475 1.439721,0 2.576097,-1.262755 2.576097,-2.803475 0.02537,-1.540548 -1.136376,-2.803305 -2.575926,-2.803305 m 9.218427,0 c -1.43972,0 -2.57627,1.262757 -2.57627,2.803305 0,1.54072 1.161929,2.803475 2.57627,2.803475 1.439548,0 2.575925,-1.262755 2.575925,-2.803475 0,-1.540548 -1.136377,-2.803305 -2.575925,-2.803305"
     fill="#7289da"
     id="path2"
     sodipodi:nodetypes="ccccccccccccccccccccccccccccccsscccsssc"
     style="stroke-width:0.172649;fill:#ffffff" />
</svg>
