<?xml version="1.0" encoding="UTF-8" standalone="no"?>
<svg
   xmlns:dc="http://purl.org/dc/elements/1.1/"
   xmlns:cc="http://creativecommons.org/ns#"
   xmlns:rdf="http://www.w3.org/1999/02/22-rdf-syntax-ns#"
   xmlns:svg="http://www.w3.org/2000/svg"
   xmlns="http://www.w3.org/2000/svg"
   xmlns:sodipodi="http://sodipodi.sourceforge.net/DTD/sodipodi-0.dtd"
   xmlns:inkscape="http://www.inkscape.org/namespaces/inkscape"
   enable-background="new 0 0 128 128"
   id="Social_Icons"
   version="1.1"
   viewBox="0 0 128 128"
   xml:space="preserve"
   sodipodi:docname="linkedin.svg"
   inkscape:version="1.0.1 (3bc2e813f5, 2020-09-07)"><metadata
     id="metadata12"><rdf:RDF><cc:Work
         rdf:about=""><dc:format>image/svg+xml</dc:format><dc:type
           rdf:resource="http://purl.org/dc/dcmitype/StillImage" /><dc:title></dc:title></cc:Work></rdf:RDF></metadata><defs
     id="defs10" /><sodipodi:namedview
     pagecolor="#ffffff"
     bordercolor="#666666"
     borderopacity="1"
     objecttolerance="10"
     gridtolerance="10"
     guidetolerance="10"
     inkscape:pageopacity="0"
     inkscape:pageshadow="2"
     inkscape:window-width="1899"
     inkscape:window-height="1403"
     id="namedview8"
     showgrid="false"
     inkscape:zoom="7.875"
     inkscape:cx="64"
     inkscape:cy="64"
     inkscape:window-x="0"
     inkscape:window-y="28"
     inkscape:window-maximized="0"
     inkscape:current-layer="LinkedIn" /><g
     id="_x34__stroke"><g
       id="LinkedIn"><rect
         clip-rule="evenodd"
         fill="none"
         fill-rule="evenodd"
         height="128"
         width="128"
         id="rect2" /><path
         clip-rule="evenodd"
         d="M3.229,43.133h24.948v79.049H3.229V43.133z     M15.067,33.246h-0.181C5.855,33.246,0,27.203,0,19.543C0,11.734,6.028,5.818,15.24,5.818c9.204,0,14.864,5.901,15.044,13.703    C30.284,27.18,24.444,33.246,15.067,33.246z M128,122.182H99.71V81.275c0-10.707-4.425-18.017-14.156-18.017    c-7.443,0-11.582,4.933-13.509,9.686c-0.722,1.706-0.61,4.083-0.61,6.46v42.777H43.409c0,0,0.361-72.462,0-79.049h28.026v12.406    c1.656-5.424,10.611-13.166,24.903-13.166c17.731,0,31.661,11.37,31.661,35.855V122.182z"
         fill="#007EBB"
         fill-rule="evenodd"
         id="LinkedIn_1_"
         style="fill:#ffffff" /></g></g></svg>
