<?xml version="1.0" encoding="UTF-8" standalone="no"?>
<svg
   xmlns:dc="http://purl.org/dc/elements/1.1/"
   xmlns:cc="http://creativecommons.org/ns#"
   xmlns:rdf="http://www.w3.org/1999/02/22-rdf-syntax-ns#"
   xmlns:svg="http://www.w3.org/2000/svg"
   xmlns="http://www.w3.org/2000/svg"
   xmlns:sodipodi="http://sodipodi.sourceforge.net/DTD/sodipodi-0.dtd"
   xmlns:inkscape="http://www.inkscape.org/namespaces/inkscape"
   width="2471"
   height="2500"
   viewBox="-28.364 -29.444 42.324 42.822"
   version="1.1"
   id="svg4"
   sodipodi:docname="rss.svg"
   inkscape:version="1.0.1 (3bc2e813f5, 2020-09-07)">
  <metadata
     id="metadata10">
    <rdf:RDF>
      <cc:Work
         rdf:about="">
        <dc:format>image/svg+xml</dc:format>
        <dc:type
           rdf:resource="http://purl.org/dc/dcmitype/StillImage" />
      </cc:Work>
    </rdf:RDF>
  </metadata>
  <defs
     id="defs8" />
  <sodipodi:namedview
     pagecolor="#ffffff"
     bordercolor="#666666"
     borderopacity="1"
     objecttolerance="10"
     gridtolerance="10"
     guidetolerance="10"
     inkscape:pageopacity="0"
     inkscape:pageshadow="2"
     inkscape:window-width="820"
     inkscape:window-height="480"
     id="namedview6"
     showgrid="false"
     inkscape:zoom="0.1008"
     inkscape:cx="1097.7765"
     inkscape:cy="1338.8348"
     inkscape:window-x="373"
     inkscape:window-y="457"
     inkscape:window-maximized="0"
     inkscape:current-layer="svg4" />
  <path
     fill="#F60"
     d="M-17.392 7.875c0 3.025-2.46 5.485-5.486 5.485s-5.486-2.46-5.486-5.485c0-3.026 2.46-5.486 5.486-5.486s5.486 2.461 5.486 5.486zm31.351 5.486C14.042.744 8.208-11.757-1.567-19.736c-7.447-6.217-17.089-9.741-26.797-9.708v9.792C-16.877-19.785-5.556-13.535.344-3.66a32.782 32.782 0 0 1 4.788 17.004h8.827v.017zm-14.96 0C-.952 5.249-4.808-2.73-11.108-7.817c-4.821-3.956-11.021-6.184-17.255-6.15v8.245c6.782-.083 13.432 3.807 16.673 9.774a19.296 19.296 0 0 1 2.411 9.326h8.278v-.017z"
     id="path2"
     style="fill:#ffffff" />
</svg>
