<?xml version="1.0" encoding="UTF-8" standalone="no"?>
<svg
   xmlns:dc="http://purl.org/dc/elements/1.1/"
   xmlns:cc="http://creativecommons.org/ns#"
   xmlns:rdf="http://www.w3.org/1999/02/22-rdf-syntax-ns#"
   xmlns:svg="http://www.w3.org/2000/svg"
   xmlns="http://www.w3.org/2000/svg"
   xmlns:sodipodi="http://sodipodi.sourceforge.net/DTD/sodipodi-0.dtd"
   xmlns:inkscape="http://www.inkscape.org/namespaces/inkscape"
   height="256"
   width="256"
   viewBox="0 0 255.9998 255.94371"
   version="1.1"
   id="svg9"
   sodipodi:docname="soundcloud.svg"
   inkscape:version="1.0.1 (3bc2e813f5, 2020-09-07)">
  <metadata
     id="metadata15">
    <rdf:RDF>
      <cc:Work
         rdf:about="">
        <dc:format>image/svg+xml</dc:format>
        <dc:type
           rdf:resource="http://purl.org/dc/dcmitype/StillImage" />
        <dc:title></dc:title>
      </cc:Work>
    </rdf:RDF>
  </metadata>
  <defs
     id="defs13" />
  <sodipodi:namedview
     pagecolor="#ffffff"
     bordercolor="#666666"
     borderopacity="1"
     objecttolerance="10"
     gridtolerance="10"
     guidetolerance="10"
     inkscape:pageopacity="0"
     inkscape:pageshadow="2"
     inkscape:window-width="1499"
     inkscape:window-height="792"
     id="namedview11"
     showgrid="false"
     inkscape:zoom="1.7027131"
     inkscape:cx="100.88299"
     inkscape:cy="91.616741"
     inkscape:window-x="0"
     inkscape:window-y="28"
     inkscape:window-maximized="0"
     inkscape:current-layer="svg9" />
  <linearGradient
     id="a"
     x1="932.95068"
     x2="932.95068"
     y1="50.662758"
     y2="1824.7531"
     gradientTransform="scale(1.3427011,0.74476738)"
     gradientUnits="userSpaceOnUse">
    <stop
       offset="0"
       stop-color="#f80"
       id="stop2" />
    <stop
       offset="1"
       stop-color="#f30"
       id="stop4" />
  </linearGradient>
  <path
     d="m 1.6877424,172.85928 c 0,3.14493 1.1401176,5.52278 3.4199474,7.13468 2.2799312,1.61159 4.7170885,2.1815 7.3114712,1.70992 2.437056,-0.47168 4.14708,-1.33657 5.130073,-2.59438 0.982588,-1.25781 1.474136,-3.34139 1.474136,-6.25022 v -34.19897 c 0,-2.43736 -0.845028,-4.50117 -2.535488,-6.19122 -1.690054,-1.69046 -3.753761,-2.53549 -6.191121,-2.53549 -2.358595,0 -4.3829704,0.84503 -6.0733289,2.53549 -1.6903584,1.69005 -2.5356897,3.75376 -2.5356897,6.19122 z m 27.1233846,14.62304 c 0,2.28034 0.805899,3.98996 2.417492,5.13017 1.611796,1.14012 3.675706,1.70993 6.191223,1.70993 2.594383,0 4.697321,-0.57011 6.309117,-1.70993 1.611593,-1.13991 2.417593,-2.84983 2.417593,-5.13017 V 107.7633 c 0,-2.3586 -0.845432,-4.38318 -2.535487,-6.07333 -1.690358,-1.690056 -3.754066,-2.535387 -6.191223,-2.535387 -2.358493,0 -4.383173,0.845331 -6.073227,2.535387 -1.69046,1.69046 -2.535488,3.71473 -2.535488,6.07333 z m 27.005492,3.77373 c 0,2.28004 0.825462,3.98996 2.47649,5.13008 1.650924,1.13991 3.773629,1.71002 6.368317,1.71002 2.515619,0 4.579325,-0.57011 6.190919,-1.71002 1.611796,-1.14012 2.417795,-2.85004 2.417795,-5.13008 v -72.76143 c 0,-2.43706 -0.845331,-4.52064 -2.535486,-6.25023 -1.690359,-1.72948 -3.714634,-2.59407 -6.073228,-2.59407 -2.43736,0 -4.520632,0.86459 -6.250221,2.59407 -1.729488,1.72959 -2.594383,3.81317 -2.594383,6.25023 v 72.76143 z m 27.123386,0.35379 c 0,4.32417 2.908835,6.48631 8.726608,6.48631 5.817672,0 8.726407,-2.16214 8.726407,-6.48631 V 73.682122 c 0,-6.604005 -2.00471,-10.338303 -6.014332,-11.203199 -2.594383,-0.629006 -5.149637,0.117894 -7.665256,2.240599 -2.515821,2.122706 -3.773732,5.110104 -3.773732,8.962499 V 191.60984 Z m 27.595365,3.41995 V 66.724333 c 0,-4.088082 1.21848,-6.52524 3.65574,-7.311573 5.26722,-1.257809 10.49553,-1.886815 15.6844,-1.886815 12.02835,0 23.23175,2.830273 33.60919,8.49082 10.37763,5.660546 18.77032,13.384801 25.17747,23.172763 6.40765,9.788365 10.12228,20.578382 11.1443,32.371452 4.79566,-2.04414 9.90565,-3.06616 15.33031,-3.06616 11.00664,0 20.42135,3.89162 28.24373,11.67488 7.82259,7.78345 11.73409,17.13896 11.73409,28.06704 0,11.00664 -3.9115,20.40149 -11.73409,28.18474 -7.82238,7.78324 -17.19766,11.67487 -28.12584,11.67487 l -102.5971,-0.1179 c -0.70787,-0.23588 -1.23855,-0.66843 -1.59233,-1.29723 -0.35379,-0.62881 -0.52987,-1.17976 -0.52987,-1.65143 z"
     fill="url(#a)"
     id="path7"
     style="fill:#ffffff;stroke-width:0.101371" />
</svg>
