<?xml version="1.0" encoding="UTF-8" standalone="no"?>
<svg
   xmlns:dc="http://purl.org/dc/elements/1.1/"
   xmlns:cc="http://creativecommons.org/ns#"
   xmlns:rdf="http://www.w3.org/1999/02/22-rdf-syntax-ns#"
   xmlns:svg="http://www.w3.org/2000/svg"
   xmlns="http://www.w3.org/2000/svg"
   xmlns:sodipodi="http://sodipodi.sourceforge.net/DTD/sodipodi-0.dtd"
   xmlns:inkscape="http://www.inkscape.org/namespaces/inkscape"
   id="Layer_1"
   viewBox="0 0 2931 2931"
   width="2931"
   height="2931"
   version="1.1"
   sodipodi:docname="spotify.svg"
   inkscape:version="1.0.1 (3bc2e813f5, 2020-09-07)">
  <metadata
     id="metadata11">
    <rdf:RDF>
      <cc:Work
         rdf:about="">
        <dc:format>image/svg+xml</dc:format>
        <dc:type
           rdf:resource="http://purl.org/dc/dcmitype/StillImage" />
      </cc:Work>
    </rdf:RDF>
  </metadata>
  <defs
     id="defs9" />
  <sodipodi:namedview
     pagecolor="#ffffff"
     bordercolor="#666666"
     borderopacity="1"
     objecttolerance="10"
     gridtolerance="10"
     guidetolerance="10"
     inkscape:pageopacity="0"
     inkscape:pageshadow="2"
     inkscape:window-width="906"
     inkscape:window-height="480"
     id="namedview7"
     showgrid="false"
     inkscape:zoom="0.34390993"
     inkscape:cx="1465.5"
     inkscape:cy="1465.5"
     inkscape:window-x="0"
     inkscape:window-y="28"
     inkscape:window-maximized="0"
     inkscape:current-layer="Layer_1" />
  <style
     id="style2">.st0{fill:#2ebd59}</style>
  <path
     class="st0"
     d="M 1465.5,0 C 656.10001,0 0,656.1 0,1465.5 0,2274.9 656.10001,2931 1465.5,2931 2274.9,2931 2931,2274.9 2931,1465.5 2931,656.2 2274.9,0.1 1465.5,0 Z m 672.1,2113.6 c -26.3,43.2 -82.6,56.7 -125.6,30.4 -344.1,-210.3 -777.3,-257.8 -1287.4,-141.3 -49.2,11.3 -98.19999,-19.5 -109.40001,-68.7 -11.3,-49.2 19.40002,-98.2 68.7,-109.4 C 1242.1,1697.1 1721,1752 2107.3,1988 c 43,26.5 56.7,82.6 30.3,125.6 z m 179.3,-398.9 c -33.1,53.8 -103.5,70.6 -157.2,37.6 C 1765.9,1510.2 1165.3,1440.1 699.4,1581.5 639,1599.8 575.19999,1565.7 556.79999,1505.4 538.6,1445 572.69999,1381.3 633.00001,1362.9 1165.2,1201.4 1826.9,1279.6 2279.2,1557.6 c 53.8,33.1 70.8,103.4 37.7,157.1 z m 15.4,-415.6 C 1859.9,1018.6 1080.7,992.8 629.7,1129.6 c -72.40001,22 -149,-18.9 -170.89999,-91.3 -21.90002,-72.4 18.9,-149 91.39998,-171 C 1067.9,710.2 1928.4,740.5 2472.2,1063.3 c 65.1,38.7 86.5,122.8 47.9,187.8 -38.5,65.2 -122.8,86.7 -187.8,48 z"
     id="path4"
     style="stroke-width:1;fill:#ffffff" />
</svg>
